<svg xmlns="http://www.w3.org/2000/svg" width="30" height="30" viewBox="0 0 30 30">
  <metadata><?xpacket begin="﻿" id="W5M0MpCehiHzreSzNTczkc9d"?>
<x:xmpmeta xmlns:x="adobe:ns:meta/" x:xmptk="Adobe XMP Core 5.6-c142 79.160924, 2017/07/13-01:06:39        ">
   <rdf:RDF xmlns:rdf="http://www.w3.org/1999/02/22-rdf-syntax-ns#">
      <rdf:Description rdf:about=""/>
   </rdf:RDF>
</x:xmpmeta>
                                                                                                    
                                                                                                    
                                                                                                    
                                                                                                    
                                                                                                    
                                                                                                    
                                                                                                    
                                                                                                    
                                                                                                    
                                                                                                    
                                                                                                    
                                                                                                    
                                                                                                    
                                                                                                    
                                                                                                    
                                                                                                    
                                                                                                    
                                                                                                    
                                                                                                    
                                                                                                    
                           
<?xpacket end="w"?></metadata>
<defs>
    <style>
      .cls-1 {
        fill: #fff;
        fill-rule: evenodd;
      }
      .cls-1:hover{
          fill: transparent;
          stroke: #fff;
    }
    </style>
  </defs>
  <path id="иконка" class="cls-1" d="M1395,3174h30v30h-30v-30Zm22.21,16.64a27.55,27.55,0,0,1,1.96,2.09,6.441,6.441,0,0,1,.7,1.08,0.783,0.783,0,0,1-.44,1.2h-2.91a2.236,2.236,0,0,1-1.86-.8c-0.4-.44-0.78-0.91-1.16-1.36a3.083,3.083,0,0,0-.53-0.49,0.591,0.591,0,0,0-.97.25,3.383,3.383,0,0,0-.3,1.44,0.806,0.806,0,0,1-.93.96,7.113,7.113,0,0,1-4.17-.96,9.425,9.425,0,0,1-2.81-2.78,39.183,39.183,0,0,1-3.69-6.99c-0.23-.55-0.06-0.85.51-0.86q1.425-.03,2.85,0a0.824,0.824,0,0,1,.79.63,19.431,19.431,0,0,0,1.94,3.8,2.994,2.994,0,0,0,.73.85,0.431,0.431,0,0,0,.75-0.23,2.791,2.791,0,0,0,.17-0.8,11.926,11.926,0,0,0-.05-2.8,1.133,1.133,0,0,0-.93-1.06c-0.28-.06-0.24-0.17-0.1-0.34a1.018,1.018,0,0,1,.89-0.47h3.29a0.826,0.826,0,0,1,.71.91v3.88a1.17,1.17,0,0,0,.46,1,0.632,0.632,0,0,0,.66-0.35,12.1,12.1,0,0,0,1.86-3.02c0.22-.48.41-0.98,0.6-1.47a0.694,0.694,0,0,1,.74-0.54h3.17a1.32,1.32,0,0,1,.28.02c0.53,0.09.68,0.34,0.52,0.89a8.689,8.689,0,0,1-1.26,2.32c-0.53.78-1.1,1.53-1.62,2.31a1.1,1.1,0,0,0,.15,1.69h0Z" transform="translate(-1395 -3174)"/>
</svg>
